<?xml version="1.0" encoding="utf-8"?>
<!-- Generator: Adobe Illustrator 16.0.0, SVG Export Plug-In . SVG Version: 6.00 Build 0)  -->
<!DOCTYPE svg PUBLIC "-//W3C//DTD SVG 1.1//EN" "http://www.w3.org/Graphics/SVG/1.1/DTD/svg11.dtd">
<svg version="1.1" id="Capa_1" xmlns="http://www.w3.org/2000/svg" xmlns:xlink="http://www.w3.org/1999/xlink" x="0px" y="0px"
	 width="245px" height="35px" viewBox="0 0 245 35" enable-background="new 0 0 245 35" xml:space="preserve">
<g>
	<g>
		<g>
			<g>
				<path fill-rule="evenodd" clip-rule="evenodd" fill="#000000" d="M78.499,24.493c-1.813,0-3.987-0.253-4.894-0.84
					c-0.333-0.213-0.427-0.653-0.2-0.974c0.213-0.333,0.653-0.426,0.986-0.213c0.48,0.307,2.24,0.626,4.267,0.613
					c0.399-0.027,0.72,0.307,0.733,0.693c0,0.399-0.32,0.72-0.72,0.72H78.499z"/>
			</g>
			<g>
				<path fill-rule="evenodd" clip-rule="evenodd" fill="#000000" d="M65.925,24.493h-0.186c-0.4,0-0.707-0.333-0.707-0.72
					s0.32-0.707,0.72-0.707l0,0c2.026,0,3.786-0.293,4.267-0.6c0.333-0.213,0.773-0.121,1,0.2c0.213,0.333,0.12,0.773-0.213,0.987
					C69.899,24.24,67.726,24.493,65.925,24.493z"/>
			</g>
			<g>
				<path fill-rule="evenodd" clip-rule="evenodd" fill="#000000" d="M73.646,13.839h-2.867c-0.399,0-0.72-0.307-0.72-0.707V11.36
					c0-0.387,0.32-0.707,0.72-0.707c0.387,0,0.707,0.32,0.707,0.707v1.066h1.439V2.146h-1.439v5.667c0,0.4-0.32,0.72-0.707,0.72
					c-0.399,0-0.72-0.319-0.72-0.72V1.44c0-0.387,0.32-0.707,0.72-0.707h2.867c0.4,0,0.72,0.32,0.72,0.707v11.693
					C74.365,13.533,74.046,13.839,73.646,13.839z"/>
			</g>
			<g>
				<path fill-rule="evenodd" clip-rule="evenodd" fill="#000000" d="M71.126,24.119h2.159v-1.146c0-0.56-0.453-0.973-1.08-0.973
					c-0.626,0-1.079,0.414-1.079,0.973V24.119z M74.005,25.546h-3.586c-0.4,0-0.72-0.32-0.72-0.707v-1.867
					c0-1.346,1.107-2.387,2.506-2.387c1.414,0,2.521,1.041,2.521,2.387v1.867C74.726,25.226,74.406,25.546,74.005,25.546z"/>
			</g>
			<g>
				<path fill-rule="evenodd" clip-rule="evenodd" fill="#000000" d="M66.112,30.506c-0.066,0-0.173,0.014-0.253,0.107
					c-0.093,0.093-0.106,0.187-0.106,0.253c0,0.054,0.014,0.16,0.106,0.24c0.08,0.093,0.187,0.107,0.253,0.107
					c0.053,0,0.16-0.014,0.253-0.107c0.08-0.08,0.106-0.187,0.106-0.24c0-0.066-0.026-0.16-0.106-0.253
					C66.272,30.52,66.166,30.506,66.112,30.506z M66.112,32.639c-0.48,0-0.934-0.187-1.28-0.52
					c-0.333-0.333-0.521-0.787-0.521-1.253c0-0.479,0.187-0.92,0.521-1.253c0.346-0.333,0.8-0.521,1.28-0.521
					s0.92,0.187,1.267,0.521c0.333,0.333,0.52,0.773,0.52,1.253c0,0.467-0.187,0.907-0.52,1.253
					C67.032,32.453,66.592,32.639,66.112,32.639z"/>
			</g>
			<g>
				<path fill-rule="evenodd" clip-rule="evenodd" fill="#000000" d="M78.312,30.506c-0.053,0-0.16,0.014-0.253,0.107
					c-0.093,0.093-0.106,0.187-0.106,0.253c0,0.054,0.014,0.16,0.106,0.24c0.094,0.093,0.2,0.107,0.253,0.107
					s0.16-0.014,0.253-0.107c0.094-0.08,0.106-0.187,0.106-0.24c0-0.066-0.013-0.16-0.106-0.253
					C78.472,30.52,78.365,30.506,78.312,30.506z M78.312,32.639c-0.48,0-0.933-0.187-1.266-0.52
					c-0.347-0.333-0.534-0.787-0.534-1.253c0-0.479,0.187-0.92,0.534-1.253c0.333-0.333,0.786-0.521,1.266-0.521
					c0.48,0,0.934,0.174,1.267,0.521c0.333,0.333,0.52,0.773,0.52,1.253c0,0.467-0.187,0.907-0.52,1.253
					C79.246,32.453,78.792,32.639,78.312,32.639z"/>
			</g>
			<g>
				<path fill-rule="evenodd" clip-rule="evenodd" fill="#000000" d="M77.232,31.573H67.179c-0.386,0-0.707-0.32-0.707-0.707
					c0-0.399,0.32-0.72,0.707-0.72h10.053c0.4,0,0.72,0.32,0.72,0.72C77.952,31.252,77.632,31.573,77.232,31.573z"/>
			</g>
			<g>
				<path fill-rule="evenodd" clip-rule="evenodd" fill="#000000" d="M66.766,30.573c-0.147,0-0.28-0.04-0.4-0.12
					c-0.333-0.227-0.414-0.667-0.2-0.986l3.654-5.387c0.213-0.32,0.667-0.414,1-0.187c0.319,0.213,0.413,0.654,0.186,0.987
					l-3.64,5.373C67.219,30.453,66.993,30.573,66.766,30.573z"/>
			</g>
			<g>
				<path fill-rule="evenodd" clip-rule="evenodd" fill="#000000" d="M77.659,30.573c-0.24,0-0.467-0.12-0.601-0.32l-3.653-5.373
					c-0.213-0.333-0.133-0.773,0.2-0.987c0.32-0.227,0.773-0.133,1,0.187l3.64,5.387c0.227,0.319,0.133,0.76-0.187,0.986
					C77.925,30.533,77.792,30.573,77.659,30.573z"/>
			</g>
			<g>
				<path fill-rule="evenodd" clip-rule="evenodd" fill="#000000" d="M72.205,31.573c-0.399,0-0.719-0.32-0.719-0.707v-6.026
					c0-0.4,0.32-0.72,0.719-0.72c0.4,0,0.72,0.32,0.72,0.72v6.026C72.925,31.252,72.605,31.573,72.205,31.573z"/>
			</g>
			<g>
				<path fill-rule="evenodd" clip-rule="evenodd" fill="#000000" d="M70.046,31.213c-0.387,0-0.707-0.32-0.707-0.707v-5.32
					c0-0.387,0.32-0.707,0.707-0.707c0.4,0,0.72,0.32,0.72,0.707v5.32C70.766,30.893,70.446,31.213,70.046,31.213z"/>
			</g>
			<g>
				<path fill-rule="evenodd" clip-rule="evenodd" fill="#000000" d="M74.365,31.573c-0.399,0-0.72-0.32-0.72-0.707v-5.68
					c0-0.387,0.32-0.707,0.72-0.707c0.387,0,0.707,0.32,0.707,0.707v5.68C75.072,31.252,74.752,31.573,74.365,31.573z"/>
			</g>
			<g>
				<path fill-rule="evenodd" clip-rule="evenodd" fill="#000000" d="M76.512,31.573c-0.399,0-0.719-0.32-0.719-0.707v-2.479
					c0-0.4,0.32-0.72,0.719-0.72c0.4,0,0.72,0.32,0.72,0.72v2.479C77.232,31.252,76.912,31.573,76.512,31.573z"/>
			</g>
			<g>
				<path fill-rule="evenodd" clip-rule="evenodd" fill="#000000" d="M67.899,31.573c-0.4,0-0.72-0.32-0.72-0.707v-2.479
					c0-0.4,0.32-0.72,0.72-0.72c0.4,0,0.72,0.32,0.72,0.72v2.479C68.619,31.252,68.299,31.573,67.899,31.573z"/>
			</g>
			<g>
				<path fill-rule="evenodd" clip-rule="evenodd" fill="#000000" d="M67.259,15.933c-1.04,0-2.173,0.24-2.813,0.707
					c-0.867,0.627-1.533,1.6-1.587,2.32c-0.026,0.293,0.04,0.506,0.227,0.693c0.747,0.733,5.12,0.692,6.44-0.041
					c0.093-0.253,0.16-0.986,0.146-1.626c0-0.6-0.093-1.28-0.2-1.454C69.085,16.133,68.206,15.933,67.259,15.933z M65.952,21.626
					c-1.626,0-3.2-0.293-3.879-0.973c-0.48-0.48-0.707-1.107-0.654-1.814c0.107-1.307,1.173-2.613,2.173-3.346
					c1.707-1.227,5.586-1.387,6.946,0.106c0.52,0.56,0.574,1.84,0.561,2.373c0.066,2.28-0.507,2.654-0.693,2.773
					C69.592,21.279,67.739,21.626,65.952,21.626z"/>
			</g>
			<g>
				<path fill-rule="evenodd" clip-rule="evenodd" fill="#000000" d="M74.832,19.613c1.32,0.733,5.707,0.773,6.44,0.041
					c0.187-0.187,0.266-0.4,0.239-0.693c-0.066-0.72-0.733-1.693-1.586-2.32c-1.24-0.894-4.24-0.947-5.04-0.107
					c-0.093,0.173-0.2,0.854-0.187,1.427C74.672,18.626,74.739,19.359,74.832,19.613z M78.445,21.613h-0.319
					c-1.414-0.04-3.267-0.28-4.174-0.867c-0.187-0.12-0.76-0.493-0.693-2.8c0-0.507,0.04-1.787,0.561-2.347
					c1.359-1.493,5.239-1.333,6.946-0.106c1.013,0.733,2.066,2.04,2.173,3.346c0.053,0.707-0.16,1.333-0.64,1.814
					C81.486,21.466,79.646,21.613,78.445,21.613z"/>
			</g>
			<g>
				<path fill-rule="evenodd" clip-rule="evenodd" fill="#000000" d="M79.072,30.812c-0.12,0-0.253-0.027-0.36-0.093
					c-0.347-0.2-0.467-0.627-0.267-0.96l2.773-4.72c0.2-0.333,0.64-0.453,0.986-0.253c0.333,0.201,0.454,0.627,0.254,0.96
					l-2.773,4.72C79.552,30.693,79.312,30.812,79.072,30.812z"/>
			</g>
			<g>
				<path fill-rule="evenodd" clip-rule="evenodd" fill="#000000" d="M64.646,8.333c-0.186,0-0.36-0.066-0.493-0.2
					c-0.294-0.253-0.308-0.707-0.041-1c1.68-1.787,4-2.974,6.56-3.333c0.386-0.067,0.76,0.213,0.813,0.6
					c0.053,0.387-0.213,0.747-0.614,0.8c-2.227,0.32-4.253,1.347-5.707,2.893C65.019,8.253,64.833,8.333,64.646,8.333z"/>
			</g>
			<g>
				<path fill-rule="evenodd" clip-rule="evenodd" fill="#000000" d="M62.833,11.093c-0.093,0-0.187-0.027-0.28-0.053
					c-0.36-0.16-0.533-0.573-0.387-0.933c0.16-0.36,0.333-0.707,0.521-1.041c0.2-0.346,0.64-0.466,0.986-0.28
					c0.347,0.201,0.467,0.627,0.267,0.973c-0.16,0.294-0.32,0.587-0.453,0.894C63.379,10.933,63.112,11.093,62.833,11.093z"/>
			</g>
			<g>
				<path fill-rule="evenodd" clip-rule="evenodd" fill="#000000" d="M65.353,30.812c-0.253,0-0.494-0.12-0.627-0.346l-2.773-4.72
					c-0.2-0.333-0.08-0.76,0.267-0.96c0.346-0.2,0.786-0.08,0.973,0.253l2.773,4.72c0.2,0.333,0.08,0.76-0.253,0.96
					C65.592,30.786,65.472,30.812,65.353,30.812z"/>
			</g>
			<g>
				<path fill-rule="evenodd" clip-rule="evenodd" fill="#000000" d="M82.285,30.839c-0.346,0-0.653-0.253-0.706-0.6
					c-0.054-0.4,0.227-0.747,0.613-0.8c2.44-0.333,5.56-1.453,5.92-1.64c0.347-0.173,0.787-0.04,0.96,0.307
					c0.186,0.347,0.053,0.773-0.307,0.96c-0.574,0.293-3.854,1.427-6.374,1.773H82.285z"/>
			</g>
			<g>
				<path fill-rule="evenodd" clip-rule="evenodd" fill="#000000" d="M62.246,30.839h-0.106c-2.586-0.36-5.973-1.533-6.494-1.8
					c-0.346-0.186-0.493-0.613-0.307-0.959c0.187-0.347,0.613-0.48,0.974-0.307c0.347,0.187,3.586,1.319,6.026,1.667
					c0.387,0.053,0.667,0.4,0.613,0.8C62.899,30.586,62.592,30.839,62.246,30.839z"/>
			</g>
			<g>
				<path fill-rule="evenodd" clip-rule="evenodd" fill="#000000" d="M84.766,17.386c-0.267,0-0.52-0.146-0.654-0.414
					c-0.106-0.24-2.839-5.8-10.226-3.173c-0.374,0.133-0.787-0.054-0.92-0.427c-0.134-0.36,0.066-0.773,0.44-0.906
					c8.653-3.08,11.986,3.854,12.013,3.92c0.173,0.36,0.014,0.773-0.346,0.934C84.979,17.373,84.872,17.386,84.766,17.386z"/>
			</g>
			<g>
				<path fill-rule="evenodd" clip-rule="evenodd" fill="#000000" d="M59.646,17.386c-0.093,0-0.2-0.014-0.293-0.066
					c-0.36-0.16-0.52-0.574-0.36-0.934c0.04-0.066,3.373-7,12.026-3.92c0.373,0.133,0.56,0.546,0.426,0.906
					c-0.133,0.374-0.546,0.561-0.919,0.427c-7.427-2.64-10.12,2.933-10.227,3.173C60.179,17.24,59.913,17.386,59.646,17.386z"/>
			</g>
			<g>
				<path fill-rule="evenodd" clip-rule="evenodd" fill="#000000" d="M72.205,34.759c-4.253,0-12.412-0.493-15.986-2.333
					c-0.973-0.493-1.88-1.747-0.707-4.867l3.414-10.986V14.56c0-6.667,5.053-12.28,11.76-13.04c0.399-0.041,0.759,0.239,0.8,0.626
					c0.04,0.387-0.24,0.747-0.627,0.787c-5.987,0.68-10.493,5.68-10.493,11.626v2.227l-3.506,11.253
					c-0.294,0.787-0.894,2.667,0.026,3.133c3.32,1.707,11.2,2.173,15.319,2.173c4.121,0,12-0.466,15.32-2.173
					c0.907-0.467,0.32-2.346,0.027-3.133L87.539,28l-3.507-11.213l0.027-1.867l-0.027-0.333c0-5.973-4.493-10.973-10.466-11.653
					c-0.4-0.04-0.68-0.4-0.64-0.787c0.053-0.387,0.4-0.667,0.8-0.626c6.693,0.76,11.747,6.373,11.747,13.04l0.014,0.333
					l-0.014,1.681l3.426,10.986c1.174,3.12,0.267,4.374-0.707,4.867C84.619,34.266,76.459,34.759,72.205,34.759z"/>
			</g>
		</g>
		<g>
			<g>
				<path fill-rule="evenodd" clip-rule="evenodd" fill="#000000" d="M187.59,28.613c-0.173,0-0.346-0.04-0.52-0.107
					c-0.44-0.16-0.84-0.44-1.28-0.773c-0.454-0.32-0.96-0.693-1.693-1.093c-0.947-0.52-1.734-0.747-2.627-0.747
					c-0.974,0-1.693,0.293-2.52,0.747c-0.733,0.4-1.24,0.773-1.693,1.093c-0.453,0.333-0.84,0.613-1.28,0.773
					c-0.653,0.253-1.399,0-1.76-0.6l-3.84-6.427c-0.413-0.626-0.813-2.253,0.76-3.72c0.28-0.266,0.733-0.253,1.014,0.027
					c0.267,0.293,0.253,0.733-0.026,1c-1.107,1.04-0.547,1.907-0.534,1.946l3.867,6.454c0.267-0.094,0.573-0.32,0.947-0.6
					c0.466-0.32,1.027-0.733,1.84-1.187c1.013-0.546,1.946-0.92,3.227-0.92c1.453,0,2.547,0.494,3.333,0.92
					c0.8,0.454,1.373,0.867,1.827,1.187c0.387,0.28,0.693,0.506,0.959,0.6l3.84-6.427l0.053-0.08c0.04-0.053,0.48-0.773-0.667-1.893
					c-0.28-0.28-0.28-0.733,0-1c0.28-0.28,0.733-0.28,1.013-0.013c1.627,1.6,1.267,3.12,0.827,3.733l-3.827,6.4
					C188.563,28.359,188.084,28.613,187.59,28.613z"/>
			</g>
			<g>
				<path fill-rule="evenodd" clip-rule="evenodd" fill="#000000" d="M189.044,32.213c-0.374,0-0.747-0.133-1.026-0.414
					c-0.267-0.267-0.414-0.627-0.414-1c0-0.387,0.146-0.733,0.414-1c0.56-0.56,1.479-0.56,2.04,0c0.267,0.267,0.414,0.613,0.414,1
					c0,0.373-0.146,0.733-0.414,1C189.777,32.08,189.404,32.213,189.044,32.213z"/>
			</g>
			<g>
				<path fill-rule="evenodd" clip-rule="evenodd" fill="#000000" d="M171.631,27.053c-0.253,0-0.494-0.12-0.627-0.347l-2.106-3.506
					c-0.2-0.333-0.093-0.773,0.253-0.973c0.333-0.2,0.773-0.093,0.974,0.253l2.12,3.507c0.2,0.333,0.093,0.773-0.253,0.973
					C171.884,27.026,171.75,27.053,171.631,27.053z"/>
			</g>
			<g>
				<path fill-rule="evenodd" clip-rule="evenodd" fill="#000000" d="M191.47,27.053c-0.133,0-0.253-0.027-0.373-0.093
					c-0.333-0.2-0.454-0.64-0.24-0.973l2.107-3.507c0.2-0.347,0.64-0.453,0.986-0.253c0.333,0.2,0.454,0.64,0.253,0.973l-2.12,3.506
					C191.95,26.933,191.71,27.053,191.47,27.053z"/>
			</g>
			<g>
				<path fill-rule="evenodd" clip-rule="evenodd" fill="#000000" d="M181.471,34.759c-1.813,0-3.213-0.813-4.066-1.493
					c-0.307-0.24-0.36-0.693-0.107-0.987c0.253-0.307,0.693-0.36,1.013-0.107c0.667,0.533,1.76,1.173,3.16,1.173
					c1.093,0,2.213-0.413,3.16-1.16c0.307-0.24,0.76-0.187,1,0.12c0.253,0.307,0.2,0.747-0.107,0.987
					C184.324,34.239,182.884,34.759,181.471,34.759z"/>
			</g>
			<g>
				<path fill-rule="evenodd" clip-rule="evenodd" fill="#000000" d="M181.631,31.213c0.56,0,2.213,0.066,3.747,0.867l0.2,0.106
					c2.146,1.107,4.28,1.893,5.373,0.054c1.627-2.734,4.121-7.64,4.147-7.693l0.04-0.067c0.093-0.146,2.28-3.653-1.601-8.08
					l-0.173-0.2v-4.146c0-5.466-4.52-9.907-10.08-9.907h-3.6c-5.56,0-10.08,4.44-10.08,9.907v4.146l-0.173,0.2
					c-3.867,4.427-1.76,7.907-1.667,8.053l0.04,0.053c0.027,0.053,2.52,4.96,4.16,7.693c1.106,1.854,3.266,1.067,5.44-0.053
					l0.146-0.066c1.733-0.894,3.64-0.88,3.92-0.867H181.631z M189.071,34.759c-1.627,0-3.307-0.879-4.16-1.319l-0.2-0.107
					c-1.494-0.76-3.187-0.706-3.201-0.706l-0.04,0.013l-0.027-0.013c-0.027,0-1.747-0.067-3.24,0.706l-0.133,0.066
					c-1.48,0.773-5.387,2.8-7.347-0.479c-1.6-2.667-3.986-7.347-4.2-7.747c-0.267-0.44-2.533-4.519,1.64-9.493v-3.626
					c0-6.24,5.16-11.32,11.52-11.32h3.6c6.347,0,11.507,5.08,11.507,11.32v3.626c2.24,2.641,2.573,5.053,2.453,6.614
					c-0.12,1.613-0.733,2.693-0.88,2.92c-0.2,0.414-2.587,5.093-4.187,7.747C191.377,34.306,190.244,34.759,189.071,34.759z"/>
			</g>
			<g>
				<path fill-rule="evenodd" clip-rule="evenodd" fill="#000000" d="M194.03,15.613h-25.119c-0.4,0-0.72-0.307-0.72-0.707
					c0-0.387,0.32-0.707,0.72-0.707h25.119c0.4,0,0.72,0.32,0.72,0.707C194.75,15.306,194.431,15.613,194.03,15.613z"/>
			</g>
			<g>
				<path fill-rule="evenodd" clip-rule="evenodd" fill="#000000" d="M194.03,13.493h-25.119c-0.4,0-0.72-0.32-0.72-0.707
					c0-0.4,0.32-0.72,0.72-0.72l25.119,0.014c0.4,0,0.72,0.307,0.72,0.707C194.75,13.173,194.431,13.493,194.03,13.493z"/>
			</g>
			<g>
				<path fill-rule="evenodd" clip-rule="evenodd" fill="#000000" d="M188.657,20.226c-1.88,0-3.32-0.813-4.613-1.52
					c-0.96-0.533-1.787-1-2.56-1c-0.787,0-1.614,0.467-2.574,1c-1.293,0.707-2.747,1.52-4.613,1.52c-2.866,0-4.173-2.667-4.96-4.253
					c-0.134-0.28-0.253-0.533-0.373-0.747c-0.2-0.346-0.067-0.773,0.28-0.973c0.346-0.187,0.773-0.054,0.973,0.28
					c0.134,0.24,0.267,0.52,0.414,0.827c0.933,1.88,1.854,3.453,3.667,3.453c1.494,0,2.72-0.68,3.906-1.346
					c1.094-0.6,2.121-1.173,3.281-1.173c1.159,0,2.186,0.573,3.266,1.173c1.187,0.667,2.414,1.346,3.907,1.346
					c1.813,0,2.733-1.573,3.667-3.467c0.16-0.307,0.293-0.573,0.427-0.813c0.187-0.333,0.627-0.467,0.973-0.28
					c0.347,0.2,0.467,0.627,0.28,0.973c-0.12,0.213-0.253,0.467-0.387,0.747C192.831,17.56,191.524,20.226,188.657,20.226z"/>
			</g>
		</g>
		<g>
			<g>
				<path fill-rule="evenodd" clip-rule="evenodd" fill="#000000" d="M120.578,10.187c-0.2,0-0.36,0.16-0.36,0.36
					c0,0.187,0.16,0.347,0.36,0.347c0.2,0,0.36-0.16,0.36-0.347C120.938,10.346,120.778,10.187,120.578,10.187z M120.578,11.6
					c-0.6,0-1.08-0.48-1.08-1.067c0-0.573,0.48-1.053,1.08-1.053c0.587,0,1.08,0.48,1.08,1.053
					C121.658,11.12,121.165,11.6,120.578,11.6z"/>
			</g>
			<g>
				<path fill-rule="evenodd" clip-rule="evenodd" fill="#000000" d="M120.578,6.64c-2.173,0-3.946,1.747-3.946,3.893
					c0,2.16,1.773,3.907,3.946,3.907c2.173,0,3.947-1.747,3.947-3.907C124.525,8.386,122.751,6.64,120.578,6.64z M120.578,15.853
					c-2.973,0-5.387-2.387-5.387-5.32c0-2.92,2.414-5.307,5.387-5.307c2.974,0,5.387,2.387,5.387,5.307
					C125.965,13.466,123.552,15.853,120.578,15.853z"/>
			</g>
			<g>
				<path fill-rule="evenodd" clip-rule="evenodd" fill="#000000" d="M141.391,9.12c-0.2,0-0.36,0.16-0.36,0.36
					c0,0.187,0.16,0.347,0.36,0.347s0.36-0.16,0.36-0.347C141.751,9.28,141.591,9.12,141.391,9.12z M141.391,10.546
					c-0.586,0-1.08-0.48-1.08-1.067s0.494-1.066,1.08-1.066c0.6,0,1.08,0.48,1.08,1.066S141.991,10.546,141.391,10.546z"/>
			</g>
			<g>
				<path fill-rule="evenodd" clip-rule="evenodd" fill="#000000" d="M138.165,32.866c-0.2,0-0.36,0.16-0.36,0.36
					c0,0.2,0.16,0.36,0.36,0.36s0.36-0.16,0.36-0.36C138.524,33.026,138.364,32.866,138.165,32.866z M138.165,34.293
					c-0.6,0-1.08-0.48-1.08-1.067c0-0.586,0.48-1.066,1.08-1.066c0.586,0,1.08,0.479,1.08,1.066
					C139.245,33.812,138.751,34.293,138.165,34.293z"/>
			</g>
			<g>
				<path fill-rule="evenodd" clip-rule="evenodd" fill="#000000" d="M138.885,2.386c-0.601,0-1.08,0.48-1.08,1.066
					c0,0.587,0.479,1.067,1.08,1.067c0.586,0,1.08-0.48,1.08-1.067C139.965,2.866,139.471,2.386,138.885,2.386z M138.885,5.933
					c-1.387,0-2.521-1.12-2.521-2.48c0-1.373,1.134-2.479,2.521-2.479s2.506,1.106,2.506,2.479
					C141.391,4.813,140.271,5.933,138.885,5.933z"/>
			</g>
			<g>
				<path fill-rule="evenodd" clip-rule="evenodd" fill="#000000" d="M141.751,18.693h-33.012c-0.4,0-0.72-0.32-0.72-0.707
					c0-0.4,0.32-0.707,0.72-0.707h33.012c0.4,0,0.72,0.307,0.72,0.707C142.471,18.373,142.151,18.693,141.751,18.693z"/>
			</g>
			<g>
				<path fill-rule="evenodd" clip-rule="evenodd" fill="#000000" d="M134.578,4.866h-4.667c-0.4,0-0.72-0.32-0.72-0.707
					s0.32-0.707,0.72-0.707h4.667c0.387,0,0.72,0.32,0.72,0.707S134.978,4.866,134.578,4.866z"/>
			</g>
			<g>
				<path fill-rule="evenodd" clip-rule="evenodd" fill="#000000" d="M138.885,10.187h-5.387c-0.4,0-0.72-0.32-0.72-0.707
					c0-0.4,0.32-0.707,0.72-0.707h5.387c0.387,0,0.72,0.307,0.72,0.707C139.604,9.866,139.284,10.187,138.885,10.187z"/>
			</g>
			<g>
				<path fill-rule="evenodd" clip-rule="evenodd" fill="#000000" d="M138.165,12.306h-5.747c-0.387,0-0.72-0.307-0.72-0.706
					c0-0.387,0.333-0.707,0.72-0.707h5.747c0.4,0,0.72,0.32,0.72,0.707C138.885,12,138.564,12.306,138.165,12.306z"/>
			</g>
			<g>
				<path fill-rule="evenodd" clip-rule="evenodd" fill="#000000" d="M136.004,7.346h-3.586c-0.387,0-0.72-0.32-0.72-0.707
					s0.333-0.707,0.72-0.707h3.586c0.4,0,0.72,0.32,0.72,0.707S136.405,7.346,136.004,7.346z"/>
			</g>
			<g>
				<path fill-rule="evenodd" clip-rule="evenodd" fill="#000000" d="M133.498,34.999h-8.253c-0.4,0-0.72-0.32-0.72-0.706
					c0-0.4,0.32-0.707,0.72-0.707h8.253c0.4,0,0.72,0.307,0.72,0.707C134.218,34.679,133.898,34.999,133.498,34.999z"/>
			</g>
			<g>
				<path fill-rule="evenodd" clip-rule="evenodd" fill="#000000" d="M140.311,28.266h-5.373c-0.4,0-0.72-0.32-0.72-0.707
					c0-0.399,0.319-0.706,0.72-0.706h5.373c0.4,0,0.72,0.307,0.72,0.706C141.031,27.946,140.711,28.266,140.311,28.266z"/>
			</g>
			<g>
				<path fill-rule="evenodd" clip-rule="evenodd" fill="#000000" d="M139.245,26.133h-7.547c-0.387,0-0.706-0.307-0.706-0.707
					c0-0.387,0.319-0.707,0.706-0.707h7.547c0.387,0,0.72,0.32,0.72,0.707C139.965,25.826,139.631,26.133,139.245,26.133z"/>
			</g>
			<g>
				<path fill-rule="evenodd" clip-rule="evenodd" fill="#000000" d="M137.444,30.746h-3.586c-0.399,0-0.72-0.32-0.72-0.707
					c0-0.4,0.32-0.707,0.72-0.707h3.586c0.4,0,0.72,0.307,0.72,0.707C138.165,30.426,137.844,30.746,137.444,30.746z"/>
			</g>
			<g>
				<path fill-rule="evenodd" clip-rule="evenodd" fill="#000000" d="M141.618,16.56h-3.813c-0.4,0-0.72-0.307-0.72-0.707
					c0-0.387,0.32-0.707,0.72-0.707h3.813c0.4,0,0.72,0.32,0.72,0.707C142.338,16.253,142.018,16.56,141.618,16.56z"/>
			</g>
			<g>
				<path fill-rule="evenodd" clip-rule="evenodd" fill="#000000" d="M141.258,22.586h-2.373c-0.4,0-0.72-0.307-0.72-0.706
					c0-0.387,0.32-0.707,0.72-0.707h2.373c0.4,0,0.72,0.32,0.72,0.707C141.978,22.279,141.658,22.586,141.258,22.586z"/>
			</g>
			<g>
				<path fill-rule="evenodd" clip-rule="evenodd" fill="#000000" d="M141.604,20.826h-1.64c-0.4,0-0.72-0.32-0.72-0.72
					c0-0.387,0.32-0.707,0.72-0.707h1.64c0.4,0,0.72,0.32,0.72,0.707C142.325,20.506,142.004,20.826,141.604,20.826z"/>
			</g>
			<g>
				<path fill-rule="evenodd" clip-rule="evenodd" fill="#000000" d="M126.018,31.426c-0.374,0-0.693-0.28-0.72-0.667
					c-0.014-0.387,0.28-0.72,0.68-0.747c0.213-0.013,0.413-0.026,0.627-0.053c0.387-0.04,0.747,0.24,0.786,0.626
					c0.041,0.387-0.239,0.747-0.626,0.787c-0.24,0.026-0.467,0.04-0.707,0.053H126.018z"/>
			</g>
			<g>
				<path fill-rule="evenodd" clip-rule="evenodd" fill="#000000" d="M123.445,31.453h-0.107c-3.626-0.546-7.08-2.68-9.239-5.707
					c-0.24-0.32-0.16-0.76,0.173-0.987c0.32-0.227,0.76-0.146,1,0.16c1.947,2.733,5.04,4.64,8.28,5.12
					c0.399,0.067,0.667,0.427,0.613,0.814C124.111,31.199,123.805,31.453,123.445,31.453z"/>
			</g>
			<g>
				<path fill-rule="evenodd" clip-rule="evenodd" fill="#000000" d="M137.805,20.826h-0.72c-0.4,0-0.72-0.32-0.72-0.72
					c0-0.387,0.32-0.707,0.72-0.707h0.72c0.399,0,0.72,0.32,0.72,0.707C138.524,20.506,138.204,20.826,137.805,20.826z"/>
			</g>
			<g>
				<path fill-rule="evenodd" clip-rule="evenodd" fill="#000000" d="M136.004,22.586h-0.706c-0.4,0-0.72-0.307-0.72-0.706
					c0-0.387,0.32-0.707,0.72-0.707h0.706c0.4,0,0.72,0.32,0.72,0.707C136.725,22.279,136.405,22.586,136.004,22.586z"/>
			</g>
			<g>
				<path fill-rule="evenodd" clip-rule="evenodd" fill="#000000" d="M129.551,26.133h-0.72c-0.4,0-0.72-0.307-0.72-0.707
					c0-0.387,0.32-0.707,0.72-0.707h0.72c0.4,0,0.72,0.32,0.72,0.707C130.271,25.826,129.951,26.133,129.551,26.133z"/>
			</g>
			<g>
				<path fill-rule="evenodd" clip-rule="evenodd" fill="#000000" d="M130.992,10.187h-0.72c-0.4,0-0.72-0.32-0.72-0.707
					c0-0.4,0.32-0.707,0.72-0.707h0.72c0.387,0,0.706,0.307,0.706,0.707C131.698,9.866,131.378,10.187,130.992,10.187z"/>
			</g>
			<g>
				<path fill-rule="evenodd" clip-rule="evenodd" fill="#000000" d="M125.245,2.386c-8.707,0-15.8,7-15.8,15.6
					c0,8.6,7.093,15.6,15.8,15.6c2.573,0,5.026-0.586,7.266-1.747l0.04-0.013c0.054-0.027,2.733-1.36,3.947-7.454
					c0.066-0.573,0.667-1.427,3.68-1.427c0.573-1.613,0.854-3.292,0.854-5.026c0-1.187-0.134-2.333-0.414-3.506
					c-3.027,0.133-4.373-0.707-4.533-0.8c-0.16-0.107-0.266-0.28-0.307-0.467c-1.253-6.613-4.267-9.293-4.733-9.68
					C129.191,2.747,127.245,2.386,125.245,2.386z M125.245,34.999c-9.507,0-17.227-7.64-17.227-17.013
					c0-9.386,7.72-17.013,17.227-17.013c2.213,0,4.373,0.399,6.413,1.213c0.053,0.027,0.12,0.053,0.173,0.093
					c0.146,0.106,3.786,2.773,5.293,10.267c0.493,0.2,1.76,0.6,3.986,0.414c0.347-0.027,0.653,0.186,0.747,0.52l0.04,0.12
					c0.387,1.439,0.574,2.853,0.574,4.32c0,2.08-0.373,4.093-1.12,5.987c-0.107,0.28-0.374,0.453-0.667,0.453
					c-2.014-0.053-2.64,0.253-2.8,0.346c-1.32,6.614-4.347,8.228-4.72,8.4C130.711,34.359,128.045,34.999,125.245,34.999z"/>
			</g>
		</g>
		<g>
			<g>
				<path fill-rule="evenodd" clip-rule="evenodd" fill="#000000" d="M12.42,17c-0.187,0-0.36-0.066-0.507-0.2L5.66,10.626
					c-0.28-0.28-0.28-0.733,0-1c0.28-0.28,0.747-0.28,1.026,0l6.24,6.173c0.28,0.266,0.28,0.72,0,1
					C12.793,16.933,12.606,17,12.42,17z"/>
			</g>
			<g>
				<path fill-rule="evenodd" clip-rule="evenodd" fill="#000000" d="M15.193,14.732c-0.187,0-0.373-0.079-0.507-0.213L8.26,8.173
					c-0.28-0.266-0.28-0.72,0-1c0.28-0.28,0.733-0.28,1.014,0L15.7,13.52c0.28,0.28,0.28,0.72,0,1
					C15.553,14.653,15.38,14.732,15.193,14.732z"/>
			</g>
			<g>
				<path fill-rule="evenodd" clip-rule="evenodd" fill="#000000" d="M8.62,25.719c-0.093,0-0.186,0.04-0.253,0.107
					c-0.146,0.133-0.146,0.36,0,0.494c0.134,0.146,0.36,0.146,0.507,0c0.133-0.134,0.133-0.36,0-0.494
					C8.807,25.759,8.713,25.719,8.62,25.719z M8.62,27.133c-0.28,0-0.56-0.107-0.76-0.307c-0.426-0.414-0.426-1.094,0-1.506
					c0.414-0.414,1.093-0.414,1.52,0c0.414,0.413,0.414,1.093,0,1.506C9.167,27.026,8.887,27.133,8.62,27.133z"/>
			</g>
			<g>
				<path fill-rule="evenodd" clip-rule="evenodd" fill="#000000" d="M11.153,23.213c-0.094,0-0.187,0.027-0.254,0.107
					c-0.133,0.133-0.133,0.359,0,0.493c0.147,0.147,0.374,0.147,0.507,0c0.146-0.133,0.146-0.36,0-0.493
					C11.34,23.252,11.247,23.213,11.153,23.213z M11.153,24.626c-0.28,0-0.547-0.107-0.76-0.307c-0.414-0.414-0.414-1.094,0-1.507
					c0.414-0.413,1.107-0.413,1.52,0c0.427,0.414,0.427,1.094,0,1.507C11.7,24.52,11.434,24.626,11.153,24.626z"/>
			</g>
			<g>
				<path fill-rule="evenodd" clip-rule="evenodd" fill="#000000" d="M6.113,21.586c-0.2,0-0.36,0.16-0.36,0.347
					c0,0.2,0.16,0.36,0.36,0.36c0.2,0,0.36-0.16,0.36-0.36C6.473,21.746,6.313,21.586,6.113,21.586z M6.113,23
					c-0.6,0-1.08-0.48-1.08-1.066c0-0.587,0.48-1.053,1.08-1.053s1.08,0.466,1.08,1.053C7.193,22.52,6.713,23,6.113,23z"/>
			</g>
			<g>
				<path fill-rule="evenodd" clip-rule="evenodd" fill="#000000" d="M9.34,20.08c-0.2,0-0.36,0.16-0.36,0.346
					c0,0.201,0.16,0.36,0.36,0.36c0.2,0,0.36-0.16,0.36-0.36C9.7,20.24,9.54,20.08,9.34,20.08z M9.34,21.493
					c-0.587,0-1.066-0.48-1.066-1.067c0-0.586,0.479-1.053,1.066-1.053c0.6,0,1.08,0.467,1.08,1.053
					C10.42,21.013,9.94,21.493,9.34,21.493z"/>
			</g>
			<g>
				<path fill-rule="evenodd" clip-rule="evenodd" fill="#000000" d="M12.807,28.186c-0.2,0-0.36,0.16-0.36,0.36
					c0,0.2,0.16,0.36,0.36,0.36c0.2,0,0.36-0.16,0.36-0.36C13.167,28.346,13.006,28.186,12.807,28.186z M12.807,29.613
					c-0.601,0-1.08-0.48-1.08-1.066c0-0.587,0.479-1.067,1.08-1.067c0.586,0,1.08,0.48,1.08,1.067
					C13.887,29.133,13.393,29.613,12.807,29.613z"/>
			</g>
			<g>
				<path fill-rule="evenodd" clip-rule="evenodd" fill="#000000" d="M14.327,25c-0.2,0-0.36,0.16-0.36,0.36
					c0,0.187,0.16,0.346,0.36,0.346s0.36-0.159,0.36-0.346C14.687,25.16,14.526,25,14.327,25z M14.327,26.413
					c-0.6,0-1.08-0.467-1.08-1.053s0.48-1.066,1.08-1.066c0.6,0,1.08,0.48,1.08,1.066S14.926,26.413,14.327,26.413z"/>
			</g>
			<g>
				<path fill-rule="evenodd" clip-rule="evenodd" fill="#000000" d="M18.407,15.119c-0.187,0-0.374-0.08-0.507-0.213
					c-0.293-0.28-0.293-0.733,0-1l11.787-11.64l-0.72-0.707L12.46,6.573c-0.374,0.12-0.773-0.094-0.894-0.467
					c-0.12-0.374,0.094-0.773,0.48-0.893L28.966,0.08C29.22,0,29.5,0.066,29.687,0.253l1.52,1.506c0.28,0.28,0.28,0.72,0,1
					L18.913,14.906C18.767,15.039,18.58,15.119,18.407,15.119z"/>
			</g>
			<g>
				<path fill-rule="evenodd" clip-rule="evenodd" fill="#000000" d="M29.179,8.479c-0.186,0-0.373-0.066-0.52-0.2l-2.026-2.013
					c-0.28-0.267-0.28-0.72,0-1c0.28-0.28,0.733-0.28,1.013,0l2.041,2.013c0.28,0.267,0.28,0.72,0,1
					C29.539,8.413,29.353,8.479,29.179,8.479z"/>
			</g>
			<g>
				<path fill-rule="evenodd" clip-rule="evenodd" fill="#000000" d="M29.726,19.546h-0.027c-0.387,0-0.706-0.387-0.693-0.773
					c0.08-3.027-0.879-5.96-2.733-8.213c-0.24-0.307-0.2-0.773,0.107-1.013c0.32-0.253,0.76-0.2,1.013,0.093
					c2.067,2.533,3.146,5.813,3.053,9.173C30.433,19.199,30.113,19.546,29.726,19.546z"/>
			</g>
			<g>
				<path fill-rule="evenodd" clip-rule="evenodd" fill="#000000" d="M30.286,18.919c-0.08,0-0.146-0.013-0.227-0.027
					c-0.373-0.12-0.587-0.52-0.467-0.893l3.84-12.026l-0.707-0.707l-11.92,11.76c-0.28,0.267-0.733,0.267-1.013,0
					c-0.281-0.28-0.281-0.733,0-1.014L32.22,3.759c0.28-0.266,0.733-0.266,1.013,0l1.521,1.507c0.187,0.186,0.267,0.466,0.187,0.72
					l-3.973,12.439C30.873,18.732,30.58,18.919,30.286,18.919z"/>
			</g>
			<g>
				<path fill-rule="evenodd" clip-rule="evenodd" fill="#000000" d="M30.953,23.266c-0.053,0-0.107,0-0.16-0.014l-9.267-2.12
					c-0.387-0.094-0.627-0.467-0.533-0.854c0.093-0.387,0.48-0.613,0.867-0.533l8.866,2.04l2.506-2.48
					c0.427-0.414,0.427-1.093,0-1.506c-0.413-0.414-1.106-0.414-1.52,0l-1.493,1.453c-0.173,0.173-0.427,0.24-0.681,0.187
					l-9.399-2.227c-0.387-0.094-0.627-0.48-0.533-0.854c0.093-0.387,0.48-0.627,0.867-0.533l9.026,2.146l1.2-1.173
					c0.974-0.974,2.574-0.974,3.547,0c0.986,0.959,0.986,2.546,0,3.506l-2.786,2.76C31.326,23.199,31.14,23.266,30.953,23.266z"/>
			</g>
			<g>
				<path fill-rule="evenodd" clip-rule="evenodd" fill="#000000" d="M27.273,26.666c-0.187,0-0.36-0.08-0.506-0.213l-6.814-6.693
					c-0.28-0.266-0.28-0.72,0-1c0.28-0.28,0.734-0.28,1.014,0l6.813,6.693c0.28,0.267,0.28,0.72,0,1
					C27.646,26.586,27.46,26.666,27.273,26.666z"/>
			</g>
			<g>
				<path fill-rule="evenodd" clip-rule="evenodd" fill="#000000" d="M24.806,29.24c-0.187,0-0.373-0.08-0.506-0.214l-6.6-6.586
					c-0.28-0.267-0.28-0.72,0-1c0.28-0.28,0.747-0.267,1.014,0.013l6.6,6.573c0.28,0.28,0.28,0.733,0,1
					C25.167,29.172,24.993,29.24,24.806,29.24z"/>
			</g>
			<g>
				<path fill-rule="evenodd" clip-rule="evenodd" fill="#000000" d="M16.313,14.586c-0.92,0-1.84,0.347-2.533,1.027
					c-1.4,1.387-1.4,3.64,0,5.014c1.4,1.386,3.667,1.386,5.066,0c1.4-1.374,1.4-3.627,0-5.014
					C18.153,14.933,17.233,14.586,16.313,14.586z M16.313,23.08c-1.293,0-2.573-0.48-3.56-1.44c-1.946-1.947-1.946-5.093,0-7.027
					c1.96-1.934,5.146-1.934,7.107,0c1.96,1.934,1.96,5.093,0,7.027C18.886,22.6,17.593,23.08,16.313,23.08z"/>
			</g>
			<g>
				<path fill-rule="evenodd" clip-rule="evenodd" fill="#000000" d="M3.38,17.066c-0.4,0-0.72-0.32-0.72-0.707
					c0-0.399,0.32-0.706,0.707-0.72l9.053-0.054c0.4,0,0.72,0.32,0.72,0.707c0,0.386-0.319,0.707-0.706,0.707L3.38,17.066
					L3.38,17.066z"/>
			</g>
			<g>
				<path fill-rule="evenodd" clip-rule="evenodd" fill="#000000" d="M18.446,31.986c-0.387,0-0.707-0.307-0.707-0.693l-0.267-9.333
					c0-0.387,0.307-0.707,0.706-0.72h0.014c0.387,0,0.707,0.307,0.72,0.693l0.253,9.319c0.013,0.4-0.294,0.72-0.693,0.734H18.446z"
					/>
			</g>
			<g>
				<path fill-rule="evenodd" clip-rule="evenodd" fill="#000000" d="M16.38,34.079c-4.08,0-8.267-1.733-11.2-4.626
					c-3.013-2.974-4.667-6.92-4.68-11.12c0-0.2,0.08-0.387,0.227-0.521L2.7,16c0.494-2.787,1.894-5.426,3.96-7.467
					c5.053-5,13.053-5.44,18.626-1.04c0.307,0.24,0.36,0.693,0.107,1c-0.24,0.307-0.693,0.346-1,0.107
					c-5-3.947-12.187-3.547-16.72,0.933c-1.906,1.88-3.186,4.347-3.586,6.934C4.06,16.613,3.98,16.759,3.86,16.88l-1.92,1.76
					c0.08,3.706,1.587,7.187,4.253,9.813c2.56,2.52,6.319,4.12,9.907,4.2l1.92-1.88c0.106-0.107,0.253-0.173,0.399-0.2
					c2.681-0.387,5.107-1.6,7.014-3.493c1.453-1.427,2.533-3.2,3.133-5.12c0.107-0.374,0.52-0.574,0.894-0.467
					c0.373,0.12,0.586,0.52,0.479,0.893c-0.667,2.133-1.88,4.106-3.479,5.693c-2.08,2.053-4.707,3.387-7.6,3.854l-1.973,1.933
					C16.753,33.999,16.58,34.079,16.38,34.079z"/>
			</g>
		</g>
		<g>
			<g>
				<path fill-rule="evenodd" clip-rule="evenodd" fill="#000000" d="M213.577,27.653c-0.2,0-0.36,0.16-0.36,0.347
					c0,0.2,0.16,0.36,0.36,0.36c0.2,0,0.36-0.16,0.36-0.36C213.937,27.812,213.777,27.653,213.577,27.653z M213.577,29.066
					c-0.6,0-1.08-0.48-1.08-1.066c0-0.587,0.479-1.054,1.08-1.054c0.6,0,1.08,0.467,1.08,1.054
					C214.657,28.586,214.164,29.066,213.577,29.066z"/>
			</g>
			<g>
				<path fill-rule="evenodd" clip-rule="evenodd" fill="#000000" d="M217.523,2.133c-0.2,0-0.36,0.146-0.36,0.346
					s0.16,0.36,0.36,0.36s0.36-0.16,0.36-0.36S217.723,2.133,217.523,2.133z M217.523,3.546c-0.586,0-1.08-0.48-1.08-1.067
					s0.494-1.066,1.08-1.066c0.6,0,1.08,0.48,1.08,1.066S218.124,3.546,217.523,3.546z"/>
			</g>
			<g>
				<path fill-rule="evenodd" clip-rule="evenodd" fill="#000000" d="M241.937,2.133c-0.2,0-0.36,0.146-0.36,0.346
					s0.16,0.36,0.36,0.36c0.187,0,0.346-0.16,0.346-0.36S242.124,2.133,241.937,2.133z M241.937,3.546c-0.6,0-1.08-0.48-1.08-1.067
					s0.48-1.066,1.08-1.066c0.586,0,1.066,0.48,1.066,1.066S242.523,3.546,241.937,3.546z"/>
			</g>
			<g>
				<g>
					<path fill-rule="evenodd" clip-rule="evenodd" fill="#000000" d="M220.697,14.72c-0.24,0-0.48-0.134-0.613-0.36
						c-0.2-0.333-0.08-0.773,0.253-0.973l15.547-8.854c0.346-0.2,0.786-0.08,0.973,0.253c0.2,0.347,0.093,0.773-0.253,0.973
						l-15.546,8.867C220.95,14.679,220.817,14.72,220.697,14.72z"/>
				</g>
				<g>
					<path fill-rule="evenodd" clip-rule="evenodd" fill="#000000" d="M233.71,27.759c-0.133,0-0.267-0.04-0.387-0.12l-2.68-1.747
						c-0.333-0.213-0.426-0.653-0.213-0.973c0.227-0.333,0.667-0.427,1-0.2l2.307,1.494l6.693-3.813l-0.16-2.72
						c-0.027-0.4,0.266-0.733,0.667-0.76c0.4-0.027,0.733,0.28,0.76,0.667l0.2,3.173c0.014,0.267-0.133,0.52-0.36,0.653
						l-7.466,4.253C233.963,27.732,233.843,27.759,233.71,27.759z"/>
				</g>
				<g>
					<path fill-rule="evenodd" clip-rule="evenodd" fill="#000000" d="M236.91,27.906c-0.92,0-1.84-0.32-2.573-0.934
						c-0.293-0.267-0.333-0.707-0.08-1c0.267-0.307,0.72-0.333,1.014-0.08c0.813,0.68,1.973,0.787,2.893,0.253
						c0.92-0.52,1.414-1.56,1.213-2.6c-0.067-0.387,0.187-0.747,0.573-0.827c0.387-0.066,0.76,0.187,0.84,0.574
						c0.307,1.613-0.467,3.266-1.907,4.093C238.27,27.732,237.589,27.906,236.91,27.906z"/>
				</g>
				<g>
					<path fill-rule="evenodd" clip-rule="evenodd" fill="#000000" d="M223.443,4.88c-0.72,0-1.427-0.201-2.066-0.574
						c-0.333-0.213-0.44-0.653-0.24-0.986c0.213-0.333,0.654-0.427,0.987-0.227c0.787,0.48,1.773,0.494,2.573,0.041
						c0.8-0.467,1.294-1.307,1.267-2.227c-0.014-0.387,0.293-0.72,0.693-0.72c0.387-0.026,0.72,0.293,0.733,0.68
						c0.041,1.44-0.706,2.773-1.973,3.494C224.803,4.706,224.124,4.88,223.443,4.88z"/>
				</g>
				<g>
					<path fill-rule="evenodd" clip-rule="evenodd" fill="#000000" d="M226.99,6.333l0.36,0.613l1.867-1.066l-0.36-0.613
						L226.99,6.333z M227.083,8.613c-0.253,0-0.493-0.12-0.626-0.346l-1.067-1.84c-0.106-0.16-0.12-0.36-0.08-0.546
						c0.054-0.174,0.174-0.333,0.333-0.427l3.107-1.773c0.347-0.2,0.786-0.079,0.987,0.267l1.08,1.84
						c0.093,0.16,0.12,0.347,0.066,0.534s-0.173,0.333-0.333,0.427l-3.106,1.773C227.323,8.586,227.203,8.613,227.083,8.613z"/>
				</g>
				<g>
					<path fill-rule="evenodd" clip-rule="evenodd" fill="#000000" d="M219.843,12.746c-0.24,0-0.48-0.133-0.613-0.36
						c-0.2-0.333-0.08-0.773,0.267-0.96l4.12-2.36l-0.36-0.613l-3.399,1.947c-0.347,0.187-0.787,0.067-0.974-0.266
						c-0.2-0.333-0.093-0.773,0.253-0.974l4.026-2.293c0.16-0.093,0.36-0.12,0.547-0.066c0.173,0.053,0.333,0.173,0.427,0.333
						l1.08,1.84c0.2,0.347,0.08,0.773-0.267,0.973l-4.747,2.707C220.097,12.72,219.977,12.746,219.843,12.746z"/>
				</g>
				<g>
					<path fill-rule="evenodd" clip-rule="evenodd" fill="#000000" d="M228.243,27.613c-0.253,0-0.493-0.134-0.627-0.347
						l-1.706-2.854c-0.2-0.333-0.08-0.773,0.253-0.973c0.347-0.2,0.787-0.08,0.987,0.253l1.346,2.24l14.307-8.16l-7.187-12.28
						c-1.093-1.88-2.879-3.227-5.013-3.8c-2.12-0.56-4.347-0.267-6.253,0.827c-1.92,1.08-3.28,2.84-3.854,4.946
						c-0.573,2.107-0.28,4.293,0.827,6.187l3.773,6.466c0.2,0.333,0.093,0.773-0.254,0.974c-0.346,0.187-0.786,0.08-0.986-0.267
						l-3.773-6.467c-1.293-2.213-1.64-4.786-0.974-7.267c0.667-2.466,2.28-4.533,4.52-5.813c2.24-1.267,4.854-1.613,7.347-0.947
						c2.507,0.654,4.586,2.24,5.88,4.453l7.547,12.893c0.2,0.347,0.08,0.773-0.267,0.974L228.59,27.52
						C228.483,27.573,228.363,27.613,228.243,27.613z"/>
				</g>
			</g>
			<g>
				<path fill-rule="evenodd" clip-rule="evenodd" fill="#000000" d="M233.95,32.613h8.067l-0.96-2.84h-6.146L233.95,32.613z
					 M243.003,34.026h-10.04c-0.24,0-0.454-0.107-0.586-0.293c-0.134-0.187-0.174-0.413-0.094-0.64l1.427-4.253
					c0.107-0.28,0.373-0.48,0.68-0.48h7.187c0.307,0,0.573,0.2,0.68,0.48l1.427,4.253c0.08,0.227,0.04,0.454-0.094,0.64
					C243.457,33.919,243.243,34.026,243.003,34.026z"/>
			</g>
			<g>
				<path fill-rule="evenodd" clip-rule="evenodd" fill="#000000" d="M217.443,32.613h8.053l-0.947-2.84h-6.146L217.443,32.613z
					 M226.497,34.026h-10.053c-0.227,0-0.44-0.107-0.574-0.293c-0.133-0.187-0.173-0.413-0.106-0.64l1.439-4.253
					c0.094-0.28,0.374-0.48,0.68-0.48h7.173c0.32,0,0.586,0.2,0.68,0.48l1.439,4.253c0.08,0.227,0.041,0.454-0.093,0.64
					C226.95,33.919,226.723,34.026,226.497,34.026z"/>
			</g>
			<g>
				<path fill-rule="evenodd" clip-rule="evenodd" fill="#000000" d="M239.417,29.773c-0.4,0-0.72-0.307-0.72-0.707v-3.054
					c0-0.399,0.32-0.706,0.72-0.706c0.4,0,0.72,0.307,0.72,0.706v3.054C240.136,29.466,239.817,29.773,239.417,29.773z"/>
			</g>
			<g>
				<path fill-rule="evenodd" clip-rule="evenodd" fill="#000000" d="M236.55,29.773c-0.4,0-0.72-0.307-0.72-0.707v-1.894
					c0-0.387,0.32-0.706,0.72-0.706c0.387,0,0.72,0.319,0.72,0.706v1.894C237.27,29.466,236.937,29.773,236.55,29.773z"/>
			</g>
			<g>
				<path fill-rule="evenodd" clip-rule="evenodd" fill="#000000" d="M230.443,12.413c-0.28,0-0.56,0.106-0.76,0.307
					c-0.2,0.2-0.32,0.467-0.32,0.747c0,0.293,0.12,0.56,0.32,0.76c0.413,0.4,1.12,0.4,1.52,0c0.2-0.2,0.32-0.467,0.32-0.76
					c0-0.28-0.12-0.547-0.32-0.747C231.003,12.52,230.737,12.413,230.443,12.413z M230.443,15.946c-0.667,0-1.307-0.253-1.773-0.72
					c-0.48-0.467-0.733-1.093-0.733-1.76c0-0.654,0.253-1.28,0.733-1.747c0.467-0.467,1.106-0.733,1.773-0.733
					c0.667,0,1.307,0.266,1.773,0.733c0.479,0.467,0.747,1.093,0.747,1.747c0,0.667-0.267,1.293-0.747,1.76
					C231.75,15.693,231.11,15.946,230.443,15.946z"/>
			</g>
			<g>
				<path fill-rule="evenodd" clip-rule="evenodd" fill="#000000" d="M212.497,11.346c-0.587,0-1.08,0.48-1.08,1.067
					c0,0.586,0.493,1.053,1.08,1.053c0.6,0,1.08-0.467,1.08-1.053C213.577,11.826,213.097,11.346,212.497,11.346z M212.497,14.893
					c-1.387,0-2.507-1.12-2.507-2.479c0-1.374,1.12-2.494,2.507-2.494c1.386,0,2.52,1.12,2.52,2.494
					C215.017,13.773,213.883,14.893,212.497,14.893z"/>
			</g>
			<g>
				<path fill-rule="evenodd" clip-rule="evenodd" fill="#000000" d="M216.443,21.267c-0.387,0-0.72-0.32-0.72-0.707
					s0.333-0.707,0.72-0.707c0.6,0,1.08-0.48,1.08-1.067c0-0.387,0.32-0.707,0.72-0.707c0.399,0,0.72,0.32,0.72,0.707
					C218.963,20.16,217.83,21.267,216.443,21.267z"/>
			</g>
			<g>
				<path fill-rule="evenodd" clip-rule="evenodd" fill="#000000" d="M220.043,21.267c-1.387,0-2.52-1.107-2.52-2.48
					c0-0.387,0.32-0.707,0.72-0.707c0.399,0,0.72,0.32,0.72,0.707c0,0.586,0.48,1.067,1.08,1.067c0.387,0,0.707,0.32,0.707,0.707
					S220.43,21.267,220.043,21.267z"/>
			</g>
			<g>
				<path fill-rule="evenodd" clip-rule="evenodd" fill="#000000" d="M218.244,23.039c-0.4,0-0.72-0.32-0.72-0.706
					c0-0.587-0.48-1.066-1.08-1.066c-0.387,0-0.72-0.32-0.72-0.707s0.333-0.707,0.72-0.707c1.387,0,2.52,1.107,2.52,2.48
					C218.963,22.719,218.643,23.039,218.244,23.039z"/>
			</g>
			<g>
				<path fill-rule="evenodd" clip-rule="evenodd" fill="#000000" d="M218.244,23.039c-0.4,0-0.72-0.32-0.72-0.706
					c0-1.373,1.133-2.48,2.52-2.48c0.387,0,0.707,0.32,0.707,0.707s-0.32,0.707-0.707,0.707c-0.6,0-1.08,0.479-1.08,1.066
					C218.963,22.719,218.643,23.039,218.244,23.039z"/>
			</g>
			<g>
				<path fill-rule="evenodd" clip-rule="evenodd" fill="#000000" d="M219.684,29.773c-0.121,0-0.24-0.027-0.347-0.08
					c-0.346-0.187-0.479-0.627-0.293-0.974l9.24-16.506c0.187-0.347,0.627-0.467,0.973-0.28c0.347,0.186,0.48,0.613,0.28,0.959
					l-9.226,16.52C220.176,29.639,219.923,29.773,219.684,29.773z"/>
			</g>
			<g>
				<path fill-rule="evenodd" clip-rule="evenodd" fill="#000000" d="M223.63,29.773c-0.12,0-0.24-0.027-0.36-0.08
					c-0.347-0.2-0.467-0.627-0.267-0.974l8.32-14.613c0.187-0.347,0.626-0.467,0.974-0.28c0.346,0.2,0.467,0.626,0.266,0.974
					l-8.307,14.613C224.124,29.653,223.87,29.773,223.63,29.773z"/>
			</g>
			<g>
				<path fill-rule="evenodd" clip-rule="evenodd" fill="#000000" d="M230.457,18.439c-0.134,0-0.267-0.014-0.4-0.014
					c-0.4-0.04-0.693-0.373-0.653-0.772c0.027-0.387,0.373-0.681,0.76-0.654c0.72,0.066,1.427-0.093,2.054-0.44
					c1.72-0.974,2.319-3.134,1.346-4.84c-0.186-0.333-0.066-0.773,0.28-0.96c0.333-0.2,0.773-0.08,0.974,0.267
					c1.359,2.373,0.52,5.413-1.894,6.76C232.163,18.213,231.31,18.439,230.457,18.439z"/>
			</g>
		</g>
	</g>
</g>
</svg>
